<svg width="16" height="17" viewBox="0 0 16 17" fill="none" xmlns="http://www.w3.org/2000/svg">
<path fill-rule="evenodd" clip-rule="evenodd" d="M8 16.3855C3.58172 16.3855 0 12.8038 0 8.3855C0 3.96722 3.58172 0.385498 8 0.385498C12.4183 0.385498 16 3.96722 16 8.3855C16 12.8038 12.4183 16.3855 8 16.3855ZM13.3815 12.1125C14.1154 11.0548 14.5455 9.7704 14.5455 8.38551C14.5455 4.77056 11.615 1.84006 8 1.84006C4.38504 1.84006 1.45454 4.77056 1.45454 8.38551C1.45454 9.7704 1.88464 11.0548 2.61854 12.1125C3.43609 11.0326 5.35592 10.5684 7.99072 10.5673C6.36668 10.563 5.09091 9.41886 5.09091 6.93096C5.09091 5.29879 6.23935 4.02187 8 4.02187C9.75578 4.02187 10.9091 5.41938 10.9091 7.07642C10.9091 9.45699 9.61816 10.5631 8.00934 10.5673C10.6441 10.5684 12.5639 11.0326 13.3815 12.1125ZM12.338 13.2872C12.1251 12.5218 10.5959 12.0219 8 12.0219C5.40407 12.0219 3.87489 12.5218 3.66205 13.2872C4.81694 14.31 6.33595 14.931 8 14.931C9.66405 14.931 11.1831 14.31 12.338 13.2872ZM6.54546 6.93097C6.54546 8.58134 7.14052 9.11279 8 9.11279C8.85651 9.11279 9.45455 8.60253 9.45455 7.07643C9.45455 6.16764 8.88411 5.47643 8 5.47643C7.07908 5.47643 6.54546 6.06976 6.54546 6.93097Z" fill="white"/>
</svg>
